<svg id="Layer_1" data-name="Layer 1" xmlns="http://www.w3.org/2000/svg" viewBox="0 0 193.25 193.25"><path d="M96.63,10a86.63,86.63,0,1,0,86.62,86.63A86.73,86.73,0,0,0,96.63,10Zm.15,139c-27.81,0-43.88-13.28-44-36.31H75.92c.46,11.75,7.11,17,21.17,17,11.9,0,19.16-4.33,19.16-11.59,0-5.1-3.71-8.65-11.13-10.5L86.43,103c-11-2.63-17.77-5.56-22.41-9.58-5.25-4.33-8.19-11.9-8.19-20.24,0-19.93,15.3-31.83,41.41-31.83,16.69,0,28.43,4.94,35.08,14.68,3.4,5.1,5.1,10.66,6,19.93H115.17v-1.7c0-8.65-6.8-13.6-18.55-13.6-11,0-17.61,4-17.61,10.51,0,4.33,3.09,7.26,9.43,8.81l20.85,4.79C120.73,87.53,127.06,90.31,132,95c5.25,4.79,7.88,11.43,7.88,19.62C139.89,135.89,123.51,149,96.78,149Z" style="fill:none"/><path d="M96.63,0a96.63,96.63,0,1,0,96.62,96.63A96.74,96.74,0,0,0,96.63,0Zm0,183.25a86.63,86.63,0,1,1,86.62-86.62A86.72,86.72,0,0,1,96.63,183.25Z"/><path d="M132,95c-4.95-4.64-11.28-7.42-22.72-10.2L88.44,80C82.1,78.41,79,75.48,79,71.15c0-6.49,6.65-10.51,17.61-10.51,11.75,0,18.55,5,18.55,13.6v1.7h23.17c-.92-9.27-2.62-14.83-6-19.93-6.65-9.74-18.39-14.68-35.08-14.68-26.11,0-41.41,11.9-41.41,31.83,0,8.34,2.94,15.91,8.19,20.24,4.64,4,11.44,6.95,22.41,9.58l18.69,4.64c7.42,1.85,11.13,5.4,11.13,10.5,0,7.26-7.26,11.59-19.16,11.59-14.06,0-20.71-5.25-21.17-17H52.74c.16,23,16.23,36.31,44,36.31,26.73,0,43.11-13.13,43.11-34.45C139.89,106.38,137.26,99.74,132,95Z"/></svg>