<svg id="Layer_1" data-name="Layer 1" xmlns="http://www.w3.org/2000/svg" viewBox="0 0 184.25 184.25"><path d="M92.13.5a91.63,91.63,0,1,0,91.62,91.63A91.62,91.62,0,0,0,92.13.5Zm.15,144c-27.81,0-43.88-13.28-44-36.31H71.42c.46,11.75,7.11,17,21.17,17,11.9,0,19.16-4.33,19.16-11.59,0-5.1-3.71-8.65-11.13-10.5L81.93,98.48c-11-2.63-17.77-5.56-22.41-9.58-5.25-4.33-8.19-11.9-8.19-20.24,0-19.93,15.3-31.83,41.41-31.83,16.69,0,28.43,5,35.08,14.68,3.4,5.1,5.1,10.66,6,19.93H110.67v-1.7c0-8.65-6.8-13.6-18.54-13.6-11,0-17.62,4-17.62,10.51,0,4.33,3.09,7.26,9.43,8.81l20.86,4.79c11.43,2.78,17.76,5.56,22.71,10.2,5.25,4.79,7.88,11.43,7.88,19.62C135.39,131.39,119,144.52,92.28,144.52Z" style="stroke:#fff;stroke-miterlimit:10"/></svg>